<svg width="378" height="378" viewBox="0 0 378 378" fill="none" xmlns="http://www.w3.org/2000/svg">
<g clip-path="url(#clip0_114_846)">
<path d="M376.612 188.978C376.612 292.638 292.602 376.677 188.976 376.677C85.3464 376.677 1.34106 292.638 1.34106 188.978C1.34106 85.314 85.3464 1.27667 188.976 1.27667C292.602 1.27667 376.612 85.314 376.612 188.978Z" fill="#CA2026"/>
<path d="M306.936 188.976C306.936 254.146 254.124 306.976 188.976 306.976C123.828 306.976 71.0161 254.146 71.0161 188.976C71.0161 123.807 123.828 70.9764 188.976 70.9764C254.124 70.9764 306.936 123.807 306.936 188.976Z" fill="#34459B"/>
<path d="M103.92 331.165C102.951 330.937 102.011 330.653 101.101 330.315C100.192 329.973 99.2721 329.539 98.3388 329.013C97.4055 328.484 96.3841 327.839 95.2775 327.069C93.2695 325.676 91.6268 324.092 90.3455 322.316C89.0655 320.539 88.1988 318.648 87.7441 316.639C87.2895 314.631 87.2721 312.577 87.6868 310.472C88.1028 308.368 89.0228 306.289 90.4468 304.233C91.8561 302.204 93.4761 300.592 95.3095 299.401C97.1428 298.212 99.0815 297.445 101.128 297.107C103.176 296.765 105.288 296.861 107.464 297.399C109.637 297.932 111.753 298.911 113.807 300.336C114.868 301.073 115.804 301.792 116.619 302.492C117.432 303.191 118.168 303.916 118.829 304.664C119.489 305.413 120.1 306.205 120.667 307.044C121.231 307.879 121.8 308.821 122.372 309.867L116.251 314.337C115.64 313.196 114.773 312.116 113.652 311.1C112.529 310.08 111.436 309.203 110.375 308.467C109.52 307.875 108.621 307.475 107.675 307.261C106.727 307.047 105.785 307.028 104.848 307.196C103.911 307.369 103.009 307.741 102.145 308.323C101.281 308.903 100.505 309.689 99.8188 310.683C99.1775 311.605 98.7548 312.549 98.5455 313.517C98.3375 314.484 98.3255 315.424 98.5121 316.34C98.6975 317.255 99.0588 318.111 99.5975 318.915C100.136 319.713 100.833 320.412 101.687 321.003C102.817 321.787 104.012 322.513 105.276 323.184C106.535 323.852 107.857 324.276 109.243 324.448L107.203 331.753C105.983 331.588 104.889 331.395 103.92 331.165Z" fill="#F6EB15"/>
<path d="M157.632 332.31C157.692 331.199 157.603 330.174 157.364 329.238C157.124 328.3 156.704 327.486 156.104 326.795C155.503 326.104 154.668 325.631 153.603 325.379C152.537 325.126 151.581 325.172 150.733 325.522C149.887 325.868 149.139 326.407 148.489 327.132C147.841 327.862 147.295 328.734 146.852 329.754C146.408 330.775 146.057 331.831 145.799 332.924C145.539 334.018 145.38 335.115 145.323 336.214C145.264 337.311 145.361 338.33 145.615 339.27C145.869 340.211 146.296 341.02 146.901 341.696C147.504 342.374 148.341 342.84 149.407 343.091C150.472 343.344 151.427 343.303 152.271 342.97C153.115 342.636 153.853 342.103 154.488 341.374C155.123 340.643 155.661 339.775 156.103 338.768C156.541 337.762 156.892 336.711 157.152 335.618C157.411 334.524 157.569 333.423 157.632 332.31ZM166.748 341.335C166.283 342.452 165.677 343.542 164.935 344.608C164.191 345.674 163.295 346.651 162.247 347.543C161.199 348.436 159.975 349.156 158.576 349.704C157.176 350.252 155.575 350.58 153.775 350.688C151.975 350.796 149.969 350.586 147.755 350.063C145.541 349.538 143.656 348.823 142.095 347.919C140.533 347.014 139.251 346.003 138.245 344.884C137.24 343.766 136.463 342.57 135.912 341.3C135.361 340.03 134.993 338.751 134.809 337.466C134.621 336.18 134.571 334.934 134.655 333.726C134.739 332.519 134.901 331.41 135.14 330.399C135.373 329.414 135.727 328.359 136.195 327.227C136.664 326.098 137.272 325 138.015 323.935C138.756 322.868 139.653 321.884 140.705 320.979C141.757 320.074 142.992 319.342 144.408 318.782C145.824 318.223 147.427 317.887 149.213 317.778C150.999 317.668 153.013 317.875 155.253 318.408C157.467 318.934 159.353 319.647 160.915 320.552C162.476 321.458 163.757 322.475 164.759 323.606C165.759 324.738 166.527 325.946 167.061 327.227C167.595 328.508 167.953 329.791 168.141 331.078C168.325 332.363 168.376 333.616 168.288 334.838C168.2 336.056 168.041 337.159 167.808 338.146C167.569 339.156 167.215 340.218 166.748 341.335Z" fill="#F6EB15"/>
<path d="M228.045 330.213C227.694 329.162 227.247 328.253 226.705 327.481C226.162 326.711 225.498 326.127 224.711 325.73C223.923 325.334 222.991 325.234 221.914 325.434C220.835 325.631 220.002 326.058 219.409 326.711C218.814 327.363 218.395 328.147 218.153 329.065C217.907 329.982 217.807 330.993 217.857 332.098C217.903 333.203 218.029 334.309 218.233 335.413C218.438 336.518 218.714 337.589 219.063 338.623C219.41 339.659 219.862 340.561 220.421 341.329C220.975 342.099 221.647 342.674 222.43 343.055C223.215 343.439 224.146 343.531 225.223 343.334C226.301 343.134 227.138 342.714 227.733 342.075C228.329 341.437 228.742 340.661 228.973 339.747C229.205 338.833 229.297 337.83 229.251 336.738C229.206 335.646 229.083 334.547 228.879 333.442C228.674 332.339 228.395 331.261 228.045 330.213ZM240.009 334.79C240.061 335.995 239.974 337.231 239.753 338.502C239.53 339.771 239.139 341.022 238.583 342.253C238.025 343.487 237.223 344.635 236.178 345.697C235.134 346.763 233.822 347.706 232.246 348.526C230.67 349.346 228.763 349.963 226.526 350.377C223.573 350.925 221.027 350.953 218.895 350.461C216.763 349.969 214.967 349.181 213.51 348.094C212.053 347.006 210.885 345.717 210.01 344.219C209.134 342.726 208.474 341.247 208.033 339.787L204.305 340.477L206.679 353.319L195.911 355.314L190.257 324.734L201.026 322.743L203.231 334.677L207.126 333.955C207.109 332.474 207.271 330.922 207.614 329.299C207.957 327.681 208.63 326.149 209.635 324.706C210.638 323.265 212.021 321.979 213.785 320.853C215.547 319.726 217.822 318.906 220.611 318.389C222.875 317.97 224.883 317.863 226.634 318.067C228.386 318.271 229.941 318.691 231.301 319.326C232.659 319.961 233.822 320.759 234.785 321.722C235.749 322.689 236.562 323.723 237.223 324.829C237.883 325.933 238.409 327.066 238.793 328.222C239.179 329.379 239.465 330.455 239.647 331.451C239.837 332.473 239.957 333.587 240.009 334.79Z" fill="#F6EB15"/>
<path d="M289.414 313.222C289.467 314.732 289.184 316.222 288.571 317.687C287.956 319.154 287.067 320.548 285.902 321.868C284.738 323.19 283.434 324.362 281.988 325.384C280.887 326.16 279.856 326.831 278.892 327.391C277.928 327.951 276.974 328.42 276.02 328.802C275.068 329.182 274.091 329.503 273.091 329.762C272.09 330.024 270.979 330.24 269.76 330.415L268.168 323.852C268.851 323.748 269.614 323.55 270.46 323.264C271.306 322.976 272.16 322.639 273.022 322.252C273.884 321.868 274.711 321.455 275.5 321.016C276.291 320.58 276.962 320.164 277.512 319.776C278.178 319.306 278.638 318.826 278.892 318.334C279.15 317.844 279.287 317.37 279.304 316.91C279.323 316.45 279.25 316.03 279.084 315.647C278.918 315.266 278.754 314.96 278.591 314.731C278.479 314.572 278.286 314.372 278.015 314.132C277.743 313.894 277.396 313.719 276.971 313.606C276.548 313.494 276.062 313.474 275.515 313.552C274.967 313.63 274.362 313.902 273.696 314.372L269.5 317.339L266.098 312.52L269.951 309.798C270.523 309.392 270.918 308.975 271.131 308.548C271.346 308.123 271.447 307.707 271.438 307.302C271.426 306.898 271.339 306.518 271.179 306.17C271.016 305.82 270.847 305.519 270.67 305.264C270.556 305.106 270.383 304.935 270.152 304.752C269.922 304.572 269.635 304.448 269.294 304.378C268.954 304.31 268.564 304.327 268.12 304.434C267.68 304.539 267.196 304.778 266.67 305.15C265.614 305.896 264.47 306.834 263.239 307.962C262.007 309.091 260.863 310.44 259.807 312.012L254.156 308.319C255.358 306.37 256.704 304.626 258.198 303.088C259.692 301.552 261.367 300.126 263.226 298.814C264.371 298.004 265.63 297.254 266.996 296.56C268.366 295.87 269.739 295.406 271.12 295.168C272.502 294.934 273.835 295.023 275.124 295.435C276.412 295.848 277.552 296.755 278.54 298.155C278.88 298.636 279.187 299.228 279.459 299.93C279.731 300.632 279.902 301.372 279.97 302.148C280.036 302.928 279.98 303.698 279.798 304.463C279.615 305.228 279.25 305.926 278.696 306.558C279.502 306.332 280.324 306.171 281.168 306.075C282.011 305.978 282.824 305.996 283.606 306.13C284.39 306.267 285.147 306.547 285.88 306.976C286.611 307.404 287.279 308.043 287.876 308.891C288.85 310.268 289.36 311.711 289.414 313.222Z" fill="#F6EB15"/>
<path d="M53.1133 220.624C53.7493 221.392 54.3293 222.184 54.8507 223.003C55.372 223.823 55.8453 224.724 56.2733 225.705C56.7026 226.689 57.1253 227.819 57.548 229.101C58.3146 231.421 58.672 233.679 58.6253 235.865C58.5786 238.056 58.132 240.091 57.288 241.965C56.444 243.84 55.2213 245.495 53.6227 246.925C52.024 248.355 50.0373 249.46 47.664 250.244C45.3173 251.016 43.0533 251.328 40.8747 251.173C38.6947 251.02 36.6853 250.464 34.8453 249.504C33.0053 248.544 31.3786 247.193 29.9627 245.455C28.5467 243.719 27.448 241.665 26.6667 239.291C26.2613 238.064 25.9453 236.924 25.7173 235.875C25.4893 234.827 25.3373 233.804 25.26 232.808C25.184 231.813 25.172 230.813 25.2227 229.804C25.276 228.795 25.388 227.701 25.56 226.52L33.1387 226.637C32.94 227.917 32.9827 229.301 33.2667 230.791C33.5507 232.279 33.8947 233.636 34.2987 234.861C34.624 235.849 35.1013 236.713 35.7293 237.452C36.3573 238.193 37.0973 238.777 37.948 239.204C38.7987 239.636 39.744 239.879 40.7827 239.933C41.8227 239.992 42.916 239.829 44.0613 239.451C45.1293 239.099 46.036 238.601 46.784 237.955C47.532 237.308 48.108 236.563 48.5093 235.72C48.912 234.877 49.1387 233.976 49.1893 233.012C49.2427 232.048 49.1053 231.072 48.78 230.085C48.3493 228.78 47.8307 227.479 47.2267 226.183C46.624 224.888 45.8213 223.756 44.82 222.784L50.8426 218.179C51.7186 219.044 52.4773 219.86 53.1133 220.624Z" fill="#F6EB15"/>
<path d="M28.1607 181.167L50.822 181.351L50.734 192.307L28.0727 192.124L28.0033 200.551L19.5793 200.484L19.8047 172.672L28.2287 172.741L28.1607 181.167Z" fill="#F6EB15"/>
<path d="M54.5787 135.388C56.3187 137.041 57.388 138.939 57.7813 141.071C58.1773 143.207 57.9787 145.4 57.188 147.651C56.8333 148.657 56.508 149.496 56.2147 150.167C55.9187 150.839 55.5773 151.448 55.192 151.997C54.804 152.545 54.344 153.075 53.8067 153.588C53.2707 154.097 52.5827 154.697 51.7467 155.385L46.216 150.537C46.5227 150.257 46.848 149.925 47.192 149.54C47.536 149.156 47.8707 148.752 48.1973 148.331C48.524 147.909 48.8133 147.489 49.064 147.071C49.3147 146.655 49.5013 146.273 49.6227 145.928C49.7147 145.664 49.7067 145.452 49.5987 145.296C49.492 145.139 49.344 145.027 49.1587 144.963C48.9467 144.888 48.7253 144.839 48.496 144.817C48.264 144.796 48.0693 144.801 47.9093 144.833L23.6227 147.236L27.6333 135.825L41.5667 134.295L31.4333 125.015L34.4813 116.347L54.5787 135.388Z" fill="#F6EB15"/>
<path d="M66.1399 84.5226L62.1892 89.2919C62.9745 90.0173 63.7799 90.8053 64.6079 91.6559C65.4345 92.5053 66.2705 93.3986 67.1172 94.3373C67.9612 95.2759 68.7705 96.2479 69.5425 97.2533C70.3145 98.2586 71.0079 99.2719 71.6212 100.291L77.1332 93.6426L66.1399 84.5226ZM96.1185 96.0879L88.1879 93.5066L74.9332 109.499L78.9372 116.816L74.9039 121.681L62.4519 111.352L65.8132 107.299C65.1532 105.984 64.3039 104.651 63.2719 103.301C62.2372 101.951 61.0492 100.581 59.7012 99.1893C58.3559 97.7999 56.8825 96.3973 55.2852 94.9786C53.6879 93.5639 51.9905 92.1093 50.1972 90.6199L66.6785 70.7373L84.1239 85.2079L87.6985 80.8933L100.152 91.2239L96.1185 96.0879Z" fill="#F6EB15"/>
<path d="M108.361 75.6655L92.4822 48.9295L113.413 36.4881L116.425 41.5615L104.909 48.4041L108.094 53.7655L117.438 48.2121L120.449 53.2841L111.644 59.7441L114.765 64.9975L126.281 58.1508L129.293 63.2228L108.361 75.6655Z" fill="#F6EB15"/>
<path d="M165.307 52.8526L163.189 41.418L154.964 42.3433L157.189 54.358L146.421 56.3566L140.756 25.778L151.524 23.7806L153.736 35.714L161.853 34.21L159.644 22.2766L170.412 20.282L176.076 50.858L165.307 52.8526Z" fill="#F6EB15"/>
<path d="M209.755 52.9074L211.095 43.3074C209.963 43.4901 208.912 43.5994 207.943 43.6354C206.975 43.6701 205.95 43.6114 204.864 43.4581C202.499 43.1301 200.568 42.2928 199.067 40.9488C197.567 39.6061 196.422 37.8154 195.628 35.5768L197.822 19.8421L208.67 21.3554L207.079 32.7501C206.975 33.5008 207.167 34.1074 207.655 34.5741C208.143 35.0408 208.707 35.3168 209.346 35.4048C209.819 35.4714 210.307 35.4754 210.812 35.4181C211.316 35.3621 211.798 35.2088 212.259 34.9621L214.051 22.1074L224.896 23.6208L220.603 54.4208L209.755 52.9074Z" fill="#F6EB15"/>
<path d="M238.719 60.2224L252.812 32.5051L274.515 43.5464L271.841 48.8037L259.901 42.7304L257.075 48.2864L266.761 53.2171L264.088 58.4771L253.923 54.4851L251.153 59.9304L263.092 66.0051L260.421 71.2651L238.719 60.2224Z" fill="#F6EB15"/>
<path d="M293.86 99.7913C292.95 99.39 292.078 98.9367 291.247 98.4353C290.416 97.934 289.59 97.338 288.771 96.6487C287.951 95.958 287.067 95.1313 286.119 94.174C284.403 92.4353 283.079 90.574 282.147 88.5927C281.216 86.6113 280.712 84.5913 280.634 82.5353C280.558 80.478 280.918 78.454 281.714 76.4633C282.511 74.47 283.798 72.5967 285.576 70.8393C287.334 69.1007 289.222 67.818 291.243 66.9847C293.263 66.154 295.312 65.758 297.386 65.8007C299.46 65.8447 301.518 66.326 303.559 67.2527C305.598 68.1807 307.496 69.5327 309.252 71.3113C310.16 72.2287 310.95 73.1087 311.619 73.9473C312.29 74.786 312.88 75.634 313.392 76.49C313.903 77.3473 314.358 78.2407 314.759 79.1647C315.16 80.0927 315.547 81.1207 315.919 82.258L309.076 85.522C308.687 84.2873 308.035 83.0687 307.118 81.862C306.203 80.654 305.29 79.5887 304.383 78.6713C303.652 77.93 302.842 77.37 301.951 76.986C301.059 76.6047 300.136 76.41 299.184 76.4047C298.231 76.398 297.276 76.602 296.32 77.014C295.364 77.4247 294.458 78.0567 293.6 78.902C292.799 79.694 292.21 80.5447 291.826 81.454C291.443 82.3673 291.259 83.2887 291.272 84.2233C291.287 85.158 291.484 86.066 291.868 86.9527C292.248 87.838 292.804 88.6513 293.535 89.39C294.503 90.37 295.544 91.306 296.662 92.1967C297.778 93.086 298.999 93.7447 300.328 94.1713L296.98 100.973C295.811 100.589 294.771 100.195 293.86 99.7913Z" fill="#F6EB15"/>
<path d="M330.516 131.847L320.2 149.122L314.851 136.93L323.322 122.58L310.939 128.016L306.54 117.983L335.006 105.486L339.406 115.519L327.68 120.668L343.536 124.934L348.7 136.703L330.516 131.847Z" fill="#F6EB15"/>
<path d="M324.252 186.177L341.088 185.529L323.965 178.767L323.513 166.976L354.577 165.78L354.999 176.727L339.088 177.34L355.284 184.137L355.736 195.928L324.673 197.125L324.252 186.177Z" fill="#F6EB15"/>
<path d="M350.14 248.908C349.421 248.207 348.892 247.395 348.552 246.476C348.212 245.557 348.057 244.543 348.089 243.429C348.119 242.32 348.32 241.188 348.687 240.039C349.064 238.86 349.559 237.817 350.175 236.908C350.791 235.999 351.501 235.269 352.312 234.717C353.123 234.164 354.024 233.812 355.017 233.659C356.011 233.504 357.055 233.604 358.152 233.953L356.74 238.369C356.197 238.313 355.736 238.351 355.356 238.479C354.975 238.607 354.651 238.812 354.385 239.097C354.116 239.381 353.887 239.725 353.697 240.137C353.507 240.548 353.335 240.996 353.18 241.477C353.028 241.96 352.908 242.421 352.824 242.867C352.741 243.312 352.725 243.727 352.779 244.113C352.833 244.499 352.976 244.856 353.212 245.181C353.447 245.507 353.801 245.804 354.275 246.075L352.863 250.489C351.765 250.139 350.859 249.609 350.14 248.908ZM316.531 234.525L332.577 239.659L318.788 227.459L322.383 216.223L351.991 225.699L348.653 236.133L333.488 231.28L346.395 243.197L342.8 254.433L313.192 244.957L316.531 234.525Z" fill="#F6EB15"/>
<path d="M188.975 2.00668C137.631 2.00668 93.208 20.3987 56.944 56.672C20.6333 93 2.14933 137.489 2.00533 188.903C2.14933 240.401 20.6333 284.936 56.944 321.268C93.204 357.551 137.625 375.947 188.975 375.947C240.375 375.947 284.893 357.551 321.295 321.265C357.56 284.983 375.947 240.448 375.947 188.901C375.947 137.44 357.56 92.952 321.293 56.672C284.892 20.3987 240.373 2.00668 188.975 2.00668ZM188.975 377.953C137.073 377.953 92.1747 359.359 55.5253 322.687C18.8267 285.967 0.145333 240.956 0 188.903C0.145333 136.935 18.8267 91.9693 55.5253 55.2533C92.18 18.5907 137.079 2.18272e-06 188.975 2.18272e-06C240.921 2.18272e-06 285.919 18.5907 322.709 55.2507C359.367 91.924 377.953 136.889 377.953 188.901C377.953 241.001 359.367 286.012 322.711 322.687C285.92 359.359 240.925 377.953 188.975 377.953Z" fill="#F6EB15"/>
<path d="M188.975 72.7448C157.056 72.7448 129.441 84.1781 106.896 106.729C84.324 129.313 72.8333 156.969 72.744 188.931C72.8333 220.946 84.324 248.633 106.896 271.218C129.437 293.773 157.052 305.209 188.975 305.209C220.929 305.209 248.607 293.773 271.235 271.215C293.777 248.663 305.209 220.978 305.209 188.929C305.209 156.938 293.777 129.281 271.232 106.729C248.604 84.1781 220.927 72.7448 188.975 72.7448ZM188.975 307.214C156.501 307.214 128.409 295.581 105.479 272.637C82.5173 249.663 70.828 221.501 70.7386 188.931C70.828 156.415 82.5173 128.282 105.479 105.31C128.413 82.3701 156.505 70.7381 188.975 70.7381C221.477 70.7381 249.631 82.3701 272.649 105.309C295.585 128.253 307.215 156.387 307.215 188.929C307.215 221.527 295.585 249.693 272.651 272.637C249.632 295.581 221.48 307.214 188.975 307.214Z" fill="#F6EB15"/>
<path d="M178.405 244.82V247.14C179.896 246.243 181.352 245.266 182.789 244.24V241.812C181.356 242.89 179.891 243.882 178.405 244.82Z" fill="#F6EB15"/>
<path d="M112.586 247.234C108.911 245.297 105.399 242.973 102.054 240.272L101.629 242.496C105.266 245.341 109.09 247.761 113.097 249.749L113.046 249.492L112.586 247.234Z" fill="#F6EB15"/>
<path d="M167.988 251.099V250.119C160.416 253.097 152.227 254.583 143.308 254.583C135.614 254.583 128.36 253.407 121.571 251.099H116.004C124.376 254.74 133.495 256.589 143.308 256.589C153.138 256.589 162.28 254.74 170.686 251.099H169.994H167.988Z" fill="#F6EB15"/>
<path d="M201.35 224.911C201.24 224.645 201.103 224.422 200.968 224.269C200.635 223.893 200.26 223.669 199.855 223.522C198.727 225.282 197.507 227.001 196.192 228.678C197.434 228.654 198.288 228.586 198.862 228.511C199.738 227.331 200.559 226.13 201.35 224.911Z" fill="#F6EB15"/>
<path d="M76.6745 188.027C76.6745 169.494 83.0999 154.055 96.3159 140.827C109.219 127.918 124.891 121.371 142.897 121.371L143.313 121.374L143.723 121.371C161.759 121.371 177.493 127.918 190.485 140.826C203.577 154.019 209.941 169.459 209.941 188.027C209.941 197.443 208.201 206.198 204.773 214.242C205.42 214.451 206.033 214.722 206.617 215.043C210.153 206.754 211.947 197.731 211.947 188.027C211.947 169.168 205.205 152.812 191.904 139.407C178.517 126.108 162.307 119.364 143.723 119.364L143.313 119.367L142.897 119.364C124.34 119.364 108.191 126.11 94.8972 139.41C81.4745 152.843 74.6692 169.2 74.6692 188.027C74.6692 205.451 80.4959 220.712 91.9745 233.459L92.4505 230.959C81.9879 218.823 76.6745 204.412 76.6745 188.027Z" fill="#F6EB15"/>
<path d="M137.75 222.781L138.254 224.767C141.622 223.16 144.774 221.053 147.701 218.443V215.729C144.654 218.685 141.328 221.028 137.75 222.781Z" fill="#F6EB15"/>
<path d="M105.265 223.454L104.875 225.495C106.035 225.99 107.223 226.423 108.434 226.799L107.966 224.498C107.053 224.18 106.147 223.842 105.265 223.454Z" fill="#F6EB15"/>
<path d="M93.5078 215.274C85.9292 207.873 82.0865 198.676 82.0865 187.93C82.0865 177.286 85.9305 168.085 93.5198 160.576C100.956 153.053 110.123 149.238 120.768 149.238C131.441 149.238 140.667 153.053 148.185 160.576C155.651 168.138 159.436 177.342 159.436 187.93C159.436 197.808 156.164 206.396 149.785 213.534H152.475C158.424 206.298 161.443 197.705 161.443 187.93C161.443 176.794 157.463 167.117 149.608 159.161C141.696 151.245 131.992 147.232 120.768 147.232C109.568 147.232 99.9198 151.246 92.1025 159.157C84.1265 167.048 80.0812 176.73 80.0812 187.93C80.0812 199.236 84.1265 208.917 92.0932 216.697C92.9412 217.556 93.8198 218.346 94.7092 219.112L95.1505 216.792C94.6012 216.292 94.0398 215.813 93.5078 215.274Z" fill="#F6EB15"/>
<path d="M120.08 227.868L120.469 226.607C120.249 226.604 120.037 226.58 119.82 226.576L120.08 227.868Z" fill="#F6EB15"/>
<path d="M93.0621 201.295C89.3701 197.598 87.4968 193.1 87.4968 187.931C87.4968 182.766 89.3701 178.267 93.0528 174.57C96.7728 170.94 101.242 169.098 106.337 169.098C111.493 169.098 115.989 170.938 119.691 174.559C123.381 178.26 125.174 182.635 125.174 187.931C125.174 193.159 123.329 197.654 119.691 201.295C118.351 202.638 116.915 203.723 115.381 204.567L115.789 206.594C117.709 205.62 119.491 204.336 121.111 202.714C125.138 198.683 127.179 193.71 127.179 187.931C127.179 182.158 125.138 177.183 121.103 173.135C117.003 169.126 112.035 167.091 106.337 167.091C100.701 167.091 95.7608 169.123 91.6435 173.144C87.5608 177.24 85.4915 182.215 85.4915 187.931C85.4915 193.652 87.5608 198.626 91.6435 202.714C93.3021 204.371 95.1235 205.672 97.0821 206.652L97.4715 204.611C95.8915 203.756 94.4181 202.651 93.0621 201.295Z" fill="#F6EB15"/>
<path d="M265.594 223.301L270.194 235.838H261.085L265.594 223.301ZM269.293 215.541H262.078L249.005 249.093H256.217L259.013 241.434H272.355L275.335 249.093H282.731L269.293 215.541Z" fill="#F6EB15"/>
<path d="M241.424 219.773C238.634 216.528 234.848 214.904 229.972 214.904C226.182 214.904 223.114 215.815 220.773 217.611C218.43 219.42 216.897 221.76 216.268 224.739L222.94 226.271C223.481 224.649 224.378 223.296 225.553 222.297C226.817 221.309 228.346 220.769 230.153 220.769C232.505 220.769 234.485 221.572 235.836 223.296C237.278 224.919 238.092 226.996 238.36 229.515H227.812V235.116H238.36C237.913 238.183 237.009 240.435 235.654 241.787C234.216 243.233 232.508 243.864 230.518 243.864C228.621 243.864 227.006 243.319 225.556 242.147C224.205 240.972 223.308 239.171 222.942 236.731L216.178 238.903C217.892 246.117 222.669 249.721 230.337 249.721C233.402 249.721 236.116 248.92 238.36 247.565C240.522 246.117 242.33 244.127 243.592 241.611C244.854 239.079 245.489 236.007 245.489 232.487C245.489 227.267 244.134 223.033 241.424 219.773Z" fill="#F6EB15"/>
<path d="M191.555 221.223H194.891C197.235 221.223 198.947 221.31 199.761 221.394C200.842 221.573 201.743 222.117 202.47 222.938C203.103 223.653 203.55 224.739 203.55 225.903C203.55 226.906 203.281 227.807 202.738 228.533C202.195 229.335 201.565 229.873 200.666 230.151C199.761 230.511 197.959 230.694 195.258 230.694H191.557L191.555 221.223ZM208.599 219.326C207.243 217.614 205.711 216.529 203.734 215.991C202.47 215.727 199.761 215.541 195.702 215.541H184.795V249.091H191.555V236.378H195.977C199.041 236.378 201.389 236.289 203.007 235.927C204.178 235.662 205.355 235.117 206.525 234.395C207.694 233.569 208.599 232.405 209.409 231.061C210.133 229.606 210.497 227.898 210.497 225.821C210.497 223.206 209.862 220.945 208.599 219.326Z" fill="#F6EB15"/>
<path d="M176.405 215.541H169.64L156.021 237.821V215.541H149.707V249.092H156.471L169.993 227.177V249.092H176.4V215.541H176.405Z" fill="#F6EB15"/>
<path d="M91.0386 249.092H98.328L106.409 206.763L115.011 249.092H123.131L129.661 228.113L134.964 249.092H142.367L133.841 215.541H125.979L119.673 235.999L109.979 187.931H102.692L91.0386 249.092Z" fill="#F6EB15"/>
<path d="M112.108 193.716C113.637 192.073 114.447 190.19 114.447 187.93C114.447 185.673 113.637 183.785 112.108 182.241C110.484 180.624 108.588 179.81 106.333 179.81C104.075 179.81 102.18 180.624 100.563 182.241C99.0308 183.785 98.2095 185.673 98.2095 187.93C98.2095 190.19 99.0308 192.073 100.563 193.716C102.18 195.24 104.073 196.056 106.333 196.056C108.588 196.056 110.484 195.24 112.108 193.716Z" fill="#F6EB15"/>
</g>
<defs>
<clipPath id="clip0_114_846">
<rect width="377.953" height="377.953" fill="white"/>
</clipPath>
</defs>
</svg>
